<svg xmlns="http://www.w3.org/2000/svg" version="1.1" xmlns:xlink="http://www.w3.org/1999/xlink" xmlns:svgjs="http://svgjs.dev/svgjs" width="1440" height="560" preserveAspectRatio="none" viewBox="0 0 1440 560"><g clip-path="url(&quot;#SvgjsClipPath1006&quot;)" fill="none"><rect width="1440" height="560" x="0" y="0" fill="rgba(31, 3, 98, 1)"></rect><path d="M45.76 55.77Q54.05 58.02 62.35 60.27 70.64 62.48 78.93 64.69 87.22 66.84 95.52 68.98 103.81 71.07 112.1 73.15 120.4 75.15 128.69 77.15 136.98 79.07 145.27 80.98 153.57 82.8 161.86 84.61 170.15 86.32 178.44 88.02 186.74 89.61 195.03 91.2" stroke="#8000ff" stroke-width="4"></path><path d="M223.19 96.01Q230.89 97.16 238.58 98.3 246.28 99.33 253.98 100.35 261.68 101.24 269.38 102.14 277.07 102.9 284.77 103.66" stroke="#ff0080" stroke-width="4"></path><path d="M309.2 105.51Q317.25 105.93 325.31 106.35 333.36 106.61 341.42 106.87 349.47 106.97 357.53 107.07 365.58 107.02 373.64 106.96 381.69 106.75 389.74 106.54 397.8 106.17 405.85 105.8 413.91 105.28 421.96 104.75 430.02 104.08 438.07 103.4 446.13 102.57 454.18 101.75" stroke="#4000ff" stroke-width="4"></path><path d="M485.57 97.71Q493.23 96.53 500.89 95.36 508.54 94.07 516.2 92.78 523.86 91.38 531.52 89.98 539.18 88.47 546.83 86.96 554.49 85.36 562.15 83.75 569.81 82.06 577.46 80.36 585.12 78.59 592.78 76.81 600.44 74.95 608.1 73.1 615.75 71.18 623.41 69.26 631.07 67.28 638.73 65.3 646.39 63.27 654.04 61.24 661.7 59.17 669.36 57.1" stroke="#4000ff" stroke-width="4"></path><path d="M688.83 51.75Q696.77 49.55 704.71 47.34 712.65 45.13 720.59 42.91 728.53 40.7 736.48 38.48 744.42 36.28 752.36 34.07 760.3 31.89 768.24 29.71" stroke="#00ffff" stroke-width="4"></path><path d="M782.13 25.94Q789.68 23.93 797.22 21.92 804.77 19.95 812.32 17.99 819.86 16.08 827.41 14.17 834.96 12.32 842.5 10.47 850.05 8.7 857.59 6.92 865.14 5.22 872.69 3.52 880.23 1.91 887.78 0.3 895.33-1.22 902.87-2.74 910.42-4.16 917.97-5.58 925.51-6.9 933.06-8.21" stroke="#8000ff" stroke-width="4"></path><path d="M965.87-13.15Q969.04-13.56 972.22-13.97 975.39-14.37 978.56-14.76 981.74-15.12 984.91-15.49" stroke="#8000ff" stroke-width="4"></path><path d="M1019.2-18.68Q1026.98-19.18 1034.76-19.68 1042.54-20.03 1050.32-20.39 1058.1-20.59 1065.88-20.8 1073.66-20.86 1081.44-20.92 1089.22-20.83 1097-20.75 1104.78-20.51 1112.56-20.28" stroke="#00ffff" stroke-width="4"></path><path d="M1151.57-17.83Q1160.85-16.93 1170.13-16.04 1179.41-14.95 1188.68-13.86 1197.96-12.59 1207.24-11.31 1216.52-9.86 1225.8-8.4" stroke="#00ffff" stroke-width="4"></path><path d="M1240.85-5.8Q1248.5-4.36 1256.15-2.93 1263.8-1.4 1271.45 0.14 1279.1 1.77 1286.75 3.4 1294.4 5.12 1302.05 6.84 1309.7 8.64 1317.35 10.44 1325 12.31 1332.65 14.18 1340.3 16.12 1347.95 18.06 1355.6 20.05 1363.25 22.04 1370.9 24.08 1378.55 26.12 1386.2 28.2 1393.85 30.28" stroke="#0080ff" stroke-width="4"></path><path d="M1416.5 36.53Q1420.42 37.62 1424.33 38.71 1428.25 39.8 1432.17 40.89 1436.08 41.98 1440 43.08" stroke="#ff00ff" stroke-width="4"></path><path d="M38.15 96.76Q46.97 99.17 55.8 101.58 64.62 103.95 73.44 106.31 82.26 108.62 91.09 110.93 99.91 113.16 108.73 115.39 117.56 117.54 126.38 119.68" stroke="#ff0080" stroke-width="4"></path><path d="M151.92 125.54Q159.72 127.21 167.52 128.88 175.32 130.45 183.13 132.02 190.93 133.49 198.73 134.95 206.53 136.3 214.33 137.66 222.13 138.89 229.94 140.12 237.74 141.23 245.54 142.34 253.34 143.31 261.14 144.29 268.94 145.13 276.74 145.98 284.55 146.68 292.35 147.39 300.15 147.95 307.95 148.51" stroke="#4000ff" stroke-width="4"></path><path d="M329.48 149.59Q337.3 149.8 345.13 150.02 352.95 150.09 360.77 150.15 368.6 150.07 376.42 149.99 384.25 149.76 392.07 149.53 399.89 149.15 407.72 148.77 415.54 148.25 423.36 147.72 431.19 147.06 439.01 146.39" stroke="#8000ff" stroke-width="4"></path><path d="M461.72 143.95Q469.58 142.94 477.43 141.93 485.29 140.79 493.15 139.65 501.01 138.39 508.87 137.12 516.72 135.73 524.58 134.35 532.44 132.85 540.29 131.35 548.15 129.74 556.01 128.14 563.87 126.44 571.73 124.73 579.58 122.94 587.44 121.14 595.3 119.26 603.15 117.39 611.01 115.44 618.87 113.49" stroke="#8000ff" stroke-width="4"></path><path d="M642.26 107.45Q649.76 105.45 657.27 103.45 664.77 101.42 672.28 99.38 679.78 97.32 687.28 95.26 694.79 93.18 702.29 91.09 709.79 89 717.3 86.91 724.8 84.81 732.31 82.72 739.81 80.63 747.31 78.54 754.82 76.47 762.32 74.4 769.83 72.36 777.33 70.31" stroke="#00ffff" stroke-width="4"></path><path d="M814.04 60.62Q822.11 58.59 830.18 56.56 838.26 54.6 846.33 52.64 854.4 50.76 862.48 48.88 870.55 47.1 878.62 45.31" stroke="#8000ff" stroke-width="4"></path><path d="M907.47 39.45Q915.31 38.01 923.15 36.57 930.99 35.24 938.82 33.92 946.66 32.71 954.5 31.51 962.34 30.44 970.18 29.36 978.01 28.42 985.85 27.48 993.69 26.67 1001.53 25.87 1009.37 25.2 1017.21 24.54 1025.04 24.02 1032.88 23.5 1040.72 23.13 1048.56 22.76" stroke="#ff0080" stroke-width="4"></path><path d="M1058.72 22.43Q1066.85 22.3 1074.98 22.17 1083.11 22.2 1091.24 22.23 1099.37 22.42 1107.49 22.61 1115.62 22.97 1123.75 23.32 1131.88 23.83 1140.01 24.34" stroke="#0080ff" stroke-width="4"></path><path d="M1178.38 27.96Q1185.98 28.91 1193.59 29.85 1201.19 30.93 1208.8 32 1216.4 33.19 1224.01 34.38 1231.61 35.68 1239.21 36.99 1246.82 38.4 1254.42 39.81 1262.03 41.33 1269.63 42.84 1277.23 44.45 1284.84 46.06 1292.44 47.76 1300.05 49.46 1307.65 51.23 1315.26 53.01 1322.86 54.87 1330.46 56.72 1338.07 58.63 1345.67 60.55 1353.28 62.52 1360.88 64.5 1368.49 66.52 1376.09 68.54" stroke="#ff00ff" stroke-width="4"></path><path d="M1392.29 72.93Q1395.27 73.74 1398.25 74.56 1401.24 75.38 1404.22 76.2 1407.2 77.03 1410.18 77.85 1413.16 78.68 1416.14 79.5 1419.13 80.33 1422.11 81.16 1425.09 81.99 1428.07 82.82 1431.05 83.66 1434.04 84.49 1437.02 85.32 1440 86.15" stroke="#ff00ff" stroke-width="4"></path><path d="M9.92 132Q17.94 134.23 25.95 136.46 33.97 138.68 41.98 140.89 50 143.07 58.01 145.26 66.03 147.4 74.05 149.55 82.06 151.65 90.08 153.74 98.09 155.78 106.11 157.81 114.12 159.78 122.14 161.75 130.15 163.63 138.17 165.52" stroke="#ff00ff" stroke-width="4"></path><path d="M150.9 168.39Q158.56 170.04 166.21 171.68 173.87 173.23 181.52 174.79 189.18 176.24 196.83 177.68 204.49 179.03 212.15 180.37 219.8 181.6 227.46 182.82 235.11 183.93 242.77 185.04" stroke="#ff00ff" stroke-width="4"></path><path d="M271.31 188.5Q279.51 189.29 287.72 190.07 295.93 190.71 304.13 191.34 312.34 191.81 320.54 192.28 328.75 192.6 336.95 192.91 345.15 193.06 353.36 193.2 361.56 193.19 369.77 193.17 377.98 192.99 386.18 192.81 394.38 192.47 402.59 192.13 410.8 191.63 419 191.12" stroke="#ff00ff" stroke-width="4"></path><path d="M437.59 189.6Q445.32 188.81 453.05 188.03 460.78 187.11 468.51 186.19 476.24 185.14 483.97 184.09 491.7 182.92 499.43 181.75 507.16 180.46 514.89 179.16 522.62 177.76 530.34 176.35 538.07 174.84 545.8 173.33 553.53 171.71 561.26 170.1 568.99 168.39 576.72 166.69 584.45 164.89 592.18 163.1 599.91 161.23 607.64 159.37 615.37 157.43 623.1 155.49" stroke="#ff00ff" stroke-width="4"></path><path d="M651.14 148.17Q658.9 146.08 666.66 143.99 674.42 141.87 682.18 139.74 689.94 137.6 697.7 135.45 705.46 133.29 713.22 131.12 720.98 128.96 728.73 126.79 736.49 124.63 744.25 122.47 752.01 120.33 759.77 118.18 767.53 116.06 775.29 113.94 783.05 111.85 790.81 109.77 798.57 107.73 806.33 105.69" stroke="#00ffff" stroke-width="4"></path><path d="M842.34 96.67Q849.86 94.89 857.38 93.12 864.91 91.43 872.43 89.73 879.95 88.13 887.47 86.52 894.99 85 902.52 83.48 910.04 82.06 917.56 80.64" stroke="#8000ff" stroke-width="4"></path><path d="M941.62 76.55Q947.44 75.66 953.26 74.77 959.07 73.95 964.89 73.13 970.71 72.39 976.53 71.64" stroke="#0080ff" stroke-width="4"></path><path d="M1011.74 68.05Q1021 67.39 1030.26 66.73 1039.51 66.28 1048.77 65.82 1058.03 65.58 1067.29 65.33" stroke="#0080ff" stroke-width="4"></path><path d="M1103.37 65.56Q1106.7 65.67 1110.03 65.78 1113.36 65.91 1116.69 66.05 1120.02 66.21 1123.35 66.37" stroke="#0080ff" stroke-width="4"></path><path d="M1162.2 69.3Q1170.21 70.16 1178.21 71.02 1186.22 72.02 1194.23 73.02 1202.24 74.15 1210.24 75.29 1218.25 76.56 1226.26 77.83 1234.26 79.22 1242.27 80.61 1250.28 82.13 1258.29 83.64 1266.29 85.26 1274.3 86.89 1282.31 88.61 1290.32 90.34 1298.32 92.16 1306.33 93.98" stroke="#ff0080" stroke-width="4"></path><path d="M1318.78 96.94Q1323.83 98.17 1328.88 99.4 1333.93 100.66 1338.98 101.93 1344.03 103.21 1349.09 104.5 1354.14 105.82 1359.19 107.13 1364.24 108.46 1369.29 109.8 1374.34 111.15 1379.39 112.5 1384.44 113.87 1389.49 115.24 1394.54 116.62 1399.59 118.01 1404.64 119.4 1409.69 120.79 1414.75 122.19 1419.8 123.6 1424.85 125 1429.9 126.41 1434.95 127.82 1440 129.23" stroke="#8000ff" stroke-width="4"></path><path d="M31.89 181.18Q39.66 183.32 47.44 185.46 55.22 187.57 62.99 189.68 70.77 191.75 78.54 193.81 86.31 195.83 94.09 197.85 101.87 199.81 109.64 201.77 117.42 203.66 125.19 205.55 132.97 207.37 140.74 209.19" stroke="#00ffff" stroke-width="4"></path><path d="M150.88 211.46Q156.8 212.74 162.73 214.03 168.65 215.25 174.57 216.48 180.5 217.65 186.42 218.81" stroke="#ff00ff" stroke-width="4"></path><path d="M202.23 221.73Q209.9 223.04 217.58 224.34 225.25 225.53 232.92 226.72 240.6 227.79 248.27 228.85 255.94 229.79 263.61 230.73 271.29 231.54 278.96 232.35 286.63 233.02 294.31 233.7 301.98 234.23 309.65 234.77 317.33 235.17 325 235.56 332.67 235.82 340.35 236.07 348.02 236.18 355.69 236.3 363.36 236.26 371.04 236.23 378.71 236.06 386.38 235.88 394.06 235.57 401.73 235.25" stroke="#8000ff" stroke-width="4"></path><path d="M412.15 234.66Q420.18 234.08 428.21 233.49 436.24 232.76 444.28 232.03 452.31 231.15 460.34 230.27 468.37 229.25 476.4 228.23 484.43 227.07 492.46 225.91 500.49 224.62 508.53 223.33 516.56 221.92 524.59 220.5 532.62 218.97 540.65 217.43 548.68 215.79 556.71 214.15 564.74 212.4 572.78 210.65 580.81 208.81 588.84 206.97 596.87 205.04 604.9 203.12" stroke="#8000ff" stroke-width="4"></path><path d="M626.04 197.82Q634.44 195.63 642.84 193.45 651.24 191.21 659.64 188.97 668.04 186.69 676.44 184.4 684.83 182.08 693.23 179.77 701.63 177.43 710.03 175.09 718.43 172.75 726.83 170.4" stroke="#8000ff" stroke-width="4"></path><path d="M746.35 164.97Q754.01 162.85 761.67 160.73 769.33 158.64 777 156.56 784.66 154.5 792.32 152.45 799.98 150.44 807.64 148.43" stroke="#4000ff" stroke-width="4"></path><path d="M828.43 143.15Q838.24 140.76 848.04 138.38 857.85 136.13 867.66 133.87 877.46 131.75 887.27 129.64" stroke="#ff00ff" stroke-width="4"></path><path d="M925.47 122.31Q933.63 120.95 941.79 119.6 949.95 118.37 958.11 117.15 966.27 116.06 974.43 114.98 982.59 114.04 990.75 113.1 998.91 112.31 1007.07 111.52 1015.23 110.89 1023.39 110.25 1031.55 109.77 1039.71 109.29 1047.87 108.98 1056.03 108.66 1064.19 108.5 1072.35 108.34" stroke="#4000ff" stroke-width="4"></path><path d="M1104.17 108.66Q1111.4 108.94 1118.62 109.21 1125.85 109.62 1133.08 110.02 1140.3 110.54 1147.53 111.07" stroke="#00ffff" stroke-width="4"></path><path d="M1171.7 113.36Q1179.46 114.27 1187.22 115.18 1194.98 116.23 1202.74 117.27 1210.5 118.44 1218.26 119.61 1226.02 120.89 1233.78 122.18 1241.54 123.59 1249.3 124.99 1257.07 126.5 1264.83 128.02 1272.59 129.63 1280.35 131.24 1288.11 132.95 1295.87 134.66 1303.63 136.45 1311.39 138.25 1319.15 140.12 1326.91 141.99" stroke="#ff00ff" stroke-width="4"></path><path d="M1338.71 144.93Q1342.93 146.01 1347.15 147.08 1351.37 148.17 1355.59 149.27 1359.81 150.37 1364.03 151.48 1368.25 152.6 1372.47 153.72 1376.69 154.86 1380.91 155.99 1385.13 157.13 1389.36 158.28 1393.58 159.43 1397.8 160.59 1402.02 161.75 1406.24 162.91 1410.46 164.08 1414.68 165.25 1418.9 166.42 1423.12 167.6 1427.34 168.77 1431.56 169.95 1435.78 171.13 1440 172.31" stroke="#8000ff" stroke-width="4"></path><path d="M8.39 217.73Q16.87 220.09 25.34 222.45 33.82 224.79 42.29 227.13 50.77 229.44 59.25 231.75 67.72 234.01 76.2 236.27 84.67 238.48 93.15 240.69" stroke="#8000ff" stroke-width="4"></path><path d="M111.99 245.43Q119.54 247.26 127.09 249.08 134.64 250.84 142.18 252.59 149.73 254.26 157.28 255.94 164.83 257.52 172.38 259.11 179.93 260.6 187.47 262.09 195.02 263.48 202.57 264.87 210.12 266.15 217.67 267.43 225.22 268.6 232.77 269.77 240.31 270.82 247.86 271.88 255.41 272.8 262.96 273.73 270.51 274.53 278.06 275.34 285.6 276.01 293.15 276.68 300.7 277.22 308.25 277.76" stroke="#00ffff" stroke-width="4"></path><path d="M328.03 278.76Q336.02 279 344.01 279.23 352 279.31 359.99 279.38 367.98 279.31 375.96 279.23 383.95 279 391.94 278.76 399.93 278.38 407.92 277.99 415.91 277.45 423.9 276.91 431.89 276.22 439.88 275.54 447.87 274.7 455.86 273.87 463.84 272.89 471.83 271.92 479.82 270.8 487.81 269.69 495.8 268.44 503.79 267.2" stroke="#8000ff" stroke-width="4"></path><path d="M530.75 262.43Q539.47 260.71 548.2 258.99 556.92 257.15 565.64 255.3 574.37 253.34 583.09 251.38 591.81 249.32 600.54 247.25 609.26 245.1 617.98 242.94 626.71 240.71 635.43 238.47" stroke="#00ffff" stroke-width="4"></path><path d="M653.88 233.59Q662.03 231.39 670.18 229.19 678.32 226.95 686.47 224.71 694.62 222.45 702.77 220.19 710.92 217.92 719.06 215.65 727.21 213.37 735.36 211.1 743.51 208.84 751.66 206.57 759.8 204.33 767.95 202.09 776.1 199.88 784.25 197.68 792.4 195.51 800.54 193.35 808.69 191.25 816.84 189.14" stroke="#ff00ff" stroke-width="4"></path><path d="M843.85 182.46Q851.53 180.66 859.2 178.86 866.88 177.14 874.55 175.42 882.23 173.8 889.9 172.17 897.58 170.64 905.25 169.11 912.93 167.68 920.6 166.25 928.28 164.93 935.95 163.62 943.63 162.41 951.3 161.21 958.98 160.13 966.65 159.05" stroke="#8000ff" stroke-width="4"></path><path d="M986.72 156.61Q994.39 155.83 1002.07 155.05 1009.74 154.4 1017.41 153.76 1025.08 153.25 1032.76 152.74 1040.43 152.37 1048.1 152 1055.78 151.78 1063.45 151.55 1071.12 151.47 1078.8 151.39 1086.47 151.45 1094.14 151.51 1101.81 151.71 1109.49 151.91 1117.16 152.26 1124.83 152.61 1132.51 153.09 1140.18 153.58 1147.85 154.2 1155.52 154.83 1163.2 155.59 1170.87 156.35" stroke="#0080ff" stroke-width="4"></path><path d="M1206.83 160.94Q1212.17 161.75 1217.5 162.56 1222.84 163.43 1228.17 164.3 1233.51 165.23 1238.84 166.15" stroke="#8000ff" stroke-width="4"></path><path d="M1274.67 173.12Q1282.93 174.9 1291.2 176.69 1299.46 178.58 1307.73 180.46 1315.99 182.44 1324.25 184.42 1332.52 186.48 1340.78 188.54 1349.05 190.66 1357.31 192.79" stroke="#ff00ff" stroke-width="4"></path><path d="M1369.63 196.04Q1374.03 197.22 1378.43 198.4 1382.82 199.59 1387.22 200.78 1391.62 201.98 1396.02 203.18 1400.42 204.39 1404.82 205.6 1409.21 206.81 1413.61 208.03 1418.01 209.25 1422.41 210.48 1426.81 211.7 1431.2 212.93 1435.6 214.16 1440 215.38" stroke="#ff00ff" stroke-width="4"></path><path d="M8.63 260.87Q16.58 263.09 24.54 265.3 32.49 267.5 40.44 269.7 48.4 271.87 56.35 274.04 64.3 276.17 72.26 278.31 80.21 280.39 88.17 282.48 96.12 284.51 104.07 286.54 112.03 288.5 119.98 290.46" stroke="#0080ff" stroke-width="4"></path><path d="M149.03 297.21Q157.46 299.03 165.88 300.84 174.31 302.55 182.74 304.25 191.16 305.83 199.59 307.41 208.01 308.86 216.44 310.31" stroke="#ff00ff" stroke-width="4"></path><path d="M251.88 315.47Q255.13 315.87 258.38 316.27 261.63 316.65 264.88 317.03 268.13 317.38 271.38 317.74" stroke="#ff0080" stroke-width="4"></path><path d="M293.17 319.76Q301.55 320.35 309.94 320.94 318.32 321.36 326.71 321.79 335.09 322.04 343.48 322.3 351.86 322.38 360.25 322.46 368.63 322.37 377.01 322.29 385.4 322.03 393.78 321.77 402.17 321.34 410.55 320.91 418.94 320.32 427.32 319.72" stroke="#4000ff" stroke-width="4"></path><path d="M464.17 315.96Q471.93 314.95 479.69 313.93 487.44 312.79 495.2 311.64 502.96 310.38 510.72 309.11 518.47 307.73 526.23 306.35 533.99 304.86 541.75 303.37 549.51 301.78 557.26 300.18 565.02 298.49 572.78 296.8 580.54 295.03 588.29 293.25 596.05 291.39 603.81 289.54" stroke="#0080ff" stroke-width="4"></path><path d="M641.17 280.04Q649.02 277.96 656.87 275.87 664.71 273.74 672.56 271.61 680.41 269.46 688.26 267.3 696.11 265.12 703.96 262.94 711.8 260.75 719.65 258.56 727.5 256.37 735.35 254.18 743.2 252 751.04 249.82 758.89 247.66 766.74 245.5" stroke="#ff00ff" stroke-width="4"></path><path d="M799.22 236.78Q806.79 234.81 814.35 232.85 821.92 230.94 829.48 229.04 837.05 227.2 844.61 225.35 852.18 223.58 859.74 221.81 867.31 220.12 874.87 218.43 882.44 216.83 890 215.22 897.57 213.71 905.14 212.2 912.7 210.8 920.27 209.39 927.83 208.09 935.4 206.78 942.96 205.59 950.53 204.41 958.09 203.33 965.66 202.26 973.22 201.31 980.79 200.36" stroke="#00ffff" stroke-width="4"></path><path d="M1000.3 198.29Q1008.08 197.62 1015.87 196.95 1023.65 196.42 1031.44 195.89 1039.22 195.51 1047 195.12 1054.79 194.89 1062.57 194.65 1070.36 194.56 1078.14 194.46 1085.92 194.52 1093.71 194.58 1101.49 194.78 1109.28 194.98 1117.06 195.33 1124.84 195.68 1132.63 196.18 1140.41 196.67 1148.2 197.31 1155.98 197.95" stroke="#8000ff" stroke-width="4"></path><path d="M1186.41 201.24Q1192.35 202.02 1198.3 202.8 1204.24 203.66 1210.18 204.51 1216.13 205.44 1222.07 206.37" stroke="#8000ff" stroke-width="4"></path><path d="M1259.02 213.01Q1266.56 214.54 1274.1 216.08 1281.64 217.7 1289.18 219.32 1296.72 221.03 1304.27 222.73 1311.81 224.52 1319.35 226.3 1326.89 228.16 1334.43 230.01 1341.97 231.93 1349.51 233.84 1357.05 235.81 1364.59 237.78 1372.13 239.8 1379.67 241.81 1387.21 243.86 1394.76 245.91 1402.3 247.99 1409.84 250.06 1417.38 252.16 1424.92 254.25 1432.46 256.36 1440 258.46" stroke="#00ffff" stroke-width="4"></path><path d="M20.39 307.22Q28.47 309.46 36.56 311.7 44.64 313.92 52.73 316.13 60.81 318.31 68.9 320.49 76.98 322.62 85.07 324.75 93.15 326.83 101.24 328.9 109.32 330.9 117.41 332.91 125.49 334.84 133.57 336.76 141.66 338.6 149.74 340.44 157.83 342.19 165.91 343.93 174 345.57 182.08 347.2 190.17 348.73 198.25 350.25 206.34 351.65 214.42 353.05" stroke="#4000ff" stroke-width="4"></path><path d="M250.26 358.34Q258.26 359.3 266.25 360.26 274.25 361.07 282.25 361.89 290.25 362.56 298.24 363.23 306.24 363.75 314.24 364.27 322.23 364.63 330.23 365 338.23 365.21 346.23 365.42 354.22 365.48 362.22 365.54" stroke="#ff0080" stroke-width="4"></path><path d="M376.18 365.38Q384.32 365.14 392.46 364.9 400.6 364.5 408.74 364.1 416.88 363.54 425.02 362.98 433.16 362.27 441.3 361.55 449.44 360.69 457.58 359.82 465.72 358.81 473.86 357.8 482 356.65 490.14 355.49 498.28 354.2 506.42 352.92 514.56 351.5 522.7 350.08" stroke="#ff0080" stroke-width="4"></path><path d="M543.25 346.15Q552.21 344.29 561.16 342.43 570.12 340.44 579.07 338.46 588.03 336.36 596.99 334.26 605.94 332.07 614.9 329.87 623.85 327.59 632.81 325.3" stroke="#ff0080" stroke-width="4"></path><path d="M642.85 322.68Q649.87 320.81 656.89 318.94 663.9 317.04 670.92 315.14 677.94 313.21 684.96 311.29" stroke="#00ffff" stroke-width="4"></path><path d="M713.18 303.44Q721.32 301.17 729.47 298.9 737.61 296.63 745.75 294.36 753.9 292.11 762.04 289.86 770.18 287.65 778.32 285.43 786.47 283.25 794.61 281.07 802.75 278.94 810.9 276.82 819.04 274.75 827.18 272.69 835.33 270.69 843.47 268.7" stroke="#4000ff" stroke-width="4"></path><path d="M872.13 262.11Q879.81 260.46 887.5 258.82 895.18 257.27 902.86 255.72 910.55 254.28 918.23 252.83 925.91 251.49 933.6 250.16 941.28 248.94 948.96 247.72 956.65 246.62 964.33 245.52 972.02 244.54 979.7 243.57 987.38 242.73 995.07 241.88 1002.75 241.17 1010.43 240.46 1018.12 239.89 1025.8 239.32" stroke="#0080ff" stroke-width="4"></path><path d="M1037.03 238.66Q1045.21 238.31 1053.4 237.97 1061.58 237.79 1069.76 237.6 1077.95 237.58 1086.13 237.56 1094.32 237.7 1102.5 237.85 1110.68 238.15 1118.87 238.46 1127.05 238.92 1135.24 239.39 1143.42 240.01 1151.6 240.64 1159.79 241.42 1167.97 242.2" stroke="#00ffff" stroke-width="4"></path><path d="M1200.19 246.14Q1207.77 247.26 1215.35 248.38 1222.94 249.62 1230.52 250.85 1238.1 252.2 1245.68 253.55 1253.26 255 1260.85 256.45 1268.43 258 1276.01 259.55 1283.59 261.2 1291.17 262.84 1298.76 264.57 1306.34 266.29 1313.92 268.1 1321.5 269.9 1329.08 271.78 1336.67 273.65 1344.25 275.58 1351.83 277.52" stroke="#ff0080" stroke-width="4"></path><path d="M1378.84 284.66Q1380.87 285.21 1382.9 285.76 1384.93 286.31 1386.97 286.86 1389 287.41 1391.03 287.97" stroke="#8000ff" stroke-width="4"></path><path d="M1406.95 292.34Q1408.79 292.85 1410.62 293.36 1412.46 293.87 1414.29 294.38 1416.13 294.89 1417.97 295.4 1419.8 295.91 1421.64 296.42 1423.47 296.93 1425.31 297.44 1427.15 297.95 1428.98 298.46 1430.82 298.98 1432.66 299.49 1434.49 300 1436.33 300.51 1438.16 301.03 1440 301.54" stroke="#00ffff" stroke-width="4"></path><path d="M23.17 351.07Q32 353.51 40.82 355.95 49.65 358.36 58.48 360.77 67.3 363.13 76.13 365.49 84.95 367.78 93.78 370.08" stroke="#4000ff" stroke-width="4"></path><path d="M104.29 372.74Q111.99 374.64 119.68 376.54 127.38 378.36 135.08 380.19 142.77 381.94 150.47 383.68 158.17 385.34 165.87 386.99 173.56 388.56 181.26 390.12 188.96 391.58 196.65 393.04 204.35 394.39 212.05 395.74 219.74 396.97 227.44 398.2" stroke="#4000ff" stroke-width="4"></path><path d="M240.32 400.09Q248.25 401.12 256.17 402.16 264.1 403.06 272.02 403.96 279.95 404.71 287.87 405.47 295.8 406.08 303.72 406.7 311.65 407.16 319.57 407.62 327.5 407.94 335.43 408.25 343.35 408.41 351.28 408.57 359.2 408.58 367.13 408.58 375.05 408.44 382.98 408.29 390.9 408 398.83 407.7" stroke="#ff00ff" stroke-width="4"></path><path d="M422.16 406.28Q430.55 405.57 438.93 404.86 447.32 403.99 455.7 403.12 464.09 402.09 472.48 401.06 480.86 399.88 489.25 398.7 497.64 397.38 506.02 396.06 514.41 394.6 522.79 393.14 531.18 391.55 539.57 389.96 547.95 388.24 556.34 386.53" stroke="#ff0080" stroke-width="4"></path><path d="M592.39 378.44Q600.76 376.41 609.14 374.38 617.51 372.27 625.89 370.16 634.26 367.99 642.64 365.81 651.01 363.58 659.38 361.35 667.76 359.07 676.13 356.79 684.51 354.48 692.88 352.17 701.26 349.84 709.63 347.51 718.01 345.17 726.38 342.83" stroke="#0080ff" stroke-width="4"></path><path d="M739.3 339.23Q743.1 338.18 746.89 337.12 750.69 336.07 754.49 335.02 758.28 333.98 762.08 332.93" stroke="#4000ff" stroke-width="4"></path><path d="M783.07 327.22Q791.33 325.03 799.58 322.84 807.84 320.7 816.1 318.56 824.35 316.49 832.61 314.42 840.87 312.43 849.12 310.43 857.38 308.53 865.64 306.63 873.89 304.82 882.15 303.02" stroke="#ff0080" stroke-width="4"></path><path d="M907.01 298Q909.17 297.59 911.33 297.18 913.49 296.78 915.65 296.38 917.81 295.99 919.97 295.59" stroke="#0080ff" stroke-width="4"></path><path d="M940.39 292.13Q948.55 290.89 956.71 289.65 964.87 288.56 973.04 287.46 981.2 286.51 989.36 285.56 997.52 284.75 1005.68 283.95 1013.84 283.3 1022.01 282.65 1030.17 282.16 1038.33 281.67" stroke="#8000ff" stroke-width="4"></path><path d="M1050.49 281.15Q1055.08 281.01 1059.68 280.87 1064.27 280.78 1068.86 280.69 1073.46 280.65 1078.05 280.62" stroke="#ff0080" stroke-width="4"></path><path d="M1112.47 281.26Q1120.48 281.65 1128.49 282.04 1136.5 282.59 1144.51 283.13 1152.52 283.83 1160.52 284.53 1168.53 285.37 1176.54 286.21 1184.55 287.2 1192.56 288.18 1200.57 289.3 1208.58 290.43 1216.59 291.68 1224.6 292.94 1232.61 294.32 1240.62 295.7 1248.62 297.2 1256.63 298.7 1264.64 300.31 1272.65 301.93 1280.66 303.64 1288.67 305.36" stroke="#ff00ff" stroke-width="4"></path><path d="M1299.2 307.72Q1305.07 309.09 1310.93 310.45 1316.8 311.86 1322.67 313.26 1328.53 314.71 1334.4 316.16 1340.27 317.64 1346.13 319.13 1352 320.65 1357.87 322.17 1363.73 323.72 1369.6 325.26 1375.47 326.84 1381.33 328.41 1387.2 330.01 1393.07 331.6 1398.93 333.21 1404.8 334.82 1410.67 336.45 1416.53 338.07 1422.4 339.71 1428.27 341.34 1434.13 342.98 1440 344.62" stroke="#00ffff" stroke-width="4"></path><path d="M4.41 388.92Q12.1 391.07 19.79 393.21 27.48 395.34 35.17 397.48 42.86 399.59 50.55 401.7 58.24 403.77 65.93 405.85 73.62 407.89 81.31 409.93 89.01 411.91 96.7 413.9 104.39 415.83 112.08 417.76 119.77 419.62 127.46 421.48 135.15 423.26 142.84 425.05 150.53 426.75 158.22 428.45" stroke="#00ffff" stroke-width="4"></path><path d="M186.47 434.21Q192.64 435.36 198.82 436.51 205 437.59 211.17 438.67 217.34 439.67 223.52 440.68" stroke="#ff00ff" stroke-width="4"></path><path d="M239.81 443.09Q247.66 444.12 255.52 445.16 263.37 446.05 271.23 446.95 279.08 447.71 286.94 448.47 294.79 449.08 302.64 449.7 310.5 450.17 318.35 450.64 326.21 450.96 334.06 451.28 341.92 451.46 349.77 451.63 357.63 451.65 365.48 451.67" stroke="#00ffff" stroke-width="4"></path><path d="M392.3 451.06Q399.86 450.69 407.42 450.33 414.98 449.83 422.55 449.32 430.11 448.69 437.67 448.05 445.23 447.28 452.79 446.52 460.35 445.62 467.92 444.73 475.48 443.71 483.04 442.69 490.6 441.55 498.16 440.41 505.72 439.16 513.28 437.9 520.85 436.54 528.41 435.18 535.97 433.71 543.53 432.24 551.09 430.68 558.65 429.12 566.22 427.46 573.78 425.81 581.34 424.07 588.9 422.34" stroke="#8000ff" stroke-width="4"></path><path d="M600.07 419.68Q607.59 417.82 615.12 415.97 622.64 414.05 630.17 412.14 637.69 410.17 645.22 408.21 652.75 406.2 660.27 404.18" stroke="#ff00ff" stroke-width="4"></path><path d="M695.42 394.54Q703.05 392.42 710.67 390.3 718.3 388.17 725.92 386.04 733.55 383.91 741.18 381.79 748.8 379.68 756.43 377.56 764.05 375.47 771.68 373.38 779.3 371.32 786.93 369.27 794.56 367.25 802.18 365.23 809.81 363.26 817.43 361.3 825.06 359.39 832.69 357.48 840.31 355.63 847.94 353.79 855.56 352.02 863.19 350.26" stroke="#00ffff" stroke-width="4"></path><path d="M879.19 346.73Q881.09 346.32 883 345.92 884.9 345.52 886.8 345.12 888.71 344.72 890.61 344.33" stroke="#ff00ff" stroke-width="4"></path><path d="M925.33 337.72Q933.26 336.4 941.18 335.08 949.11 333.88 957.03 332.69 964.96 331.62 972.88 330.56 980.81 329.63 988.74 328.7 996.66 327.91 1004.59 327.13 1012.51 326.48 1020.44 325.84 1028.36 325.35 1036.29 324.85" stroke="#ff00ff" stroke-width="4"></path><path d="M1062.68 323.87Q1071.73 323.78 1080.78 323.69 1089.83 323.8 1098.87 323.91 1107.92 324.22 1116.97 324.52" stroke="#ff00ff" stroke-width="4"></path><path d="M1143.98 326.17Q1151.71 326.83 1159.43 327.5 1167.16 328.3 1174.89 329.1 1182.61 330.03 1190.34 330.97 1198.07 332.03 1205.79 333.09 1213.52 334.28 1221.25 335.47 1228.97 336.77 1236.7 338.08 1244.43 339.5 1252.15 340.91 1259.88 342.44 1267.61 343.96 1275.33 345.59 1283.06 347.21" stroke="#00ffff" stroke-width="4"></path><path d="M1317.3 355.04Q1321.39 356.03 1325.47 357.02 1329.56 358.04 1333.65 359.05 1337.73 360.08 1341.82 361.11" stroke="#ff0080" stroke-width="4"></path><path d="M1368.78 368.12Q1372.74 369.18 1376.69 370.24 1380.65 371.31 1384.61 372.37 1388.56 373.45 1392.52 374.53 1396.48 375.61 1400.43 376.7 1404.39 377.79 1408.35 378.88 1412.3 379.98 1416.26 381.07 1420.22 382.18 1424.17 383.28 1428.13 384.38 1432.09 385.48 1436.04 386.59 1440 387.69" stroke="#8000ff" stroke-width="4"></path><path d="M25.1 437.76Q33.54 440.09 41.98 442.43 50.41 444.72 58.85 447.02 67.29 449.28 75.72 451.53 84.16 453.73 92.6 455.93 101.04 458.06 109.47 460.19 117.91 462.24 126.35 464.29" stroke="#00ffff" stroke-width="4"></path><path d="M162.3 472.4Q163.58 472.67 164.86 472.94 166.14 473.21 167.42 473.47 168.7 473.74 169.98 474" stroke="#8000ff" stroke-width="4"></path><path d="M185.23 477.04Q192.92 478.47 200.6 479.9 208.29 481.22 215.97 482.54 223.66 483.74 231.34 484.95 239.03 486.03 246.71 487.11 254.4 488.06 262.08 489.02 269.77 489.84 277.45 490.66 285.14 491.35 292.83 492.04 300.51 492.59 308.2 493.14 315.88 493.55 323.57 493.96 331.25 494.23 338.94 494.5 346.62 494.62 354.31 494.75 361.99 494.73 369.68 494.71 377.36 494.55 385.05 494.39" stroke="#0080ff" stroke-width="4"></path><path d="M421.02 492.51Q428.98 491.86 436.94 491.2 444.9 490.39 452.85 489.59 460.81 488.64 468.77 487.7 476.73 486.61 484.69 485.53 492.65 484.31 500.61 483.1 508.56 481.76 516.52 480.41 524.48 478.95 532.44 477.49 540.4 475.92 548.36 474.34 556.32 472.66 564.28 470.99 572.23 469.21 580.19 467.43 588.15 465.57 596.11 463.71" stroke="#0080ff" stroke-width="4"></path><path d="M613.08 459.56Q621.8 457.34 630.52 455.13 639.24 452.84 647.96 450.56 656.68 448.21 665.4 445.87 674.12 443.49 682.84 441.1 691.56 438.69 700.28 436.27" stroke="#8000ff" stroke-width="4"></path><path d="M737.55 425.87Q745.27 423.73 753 421.59 760.72 419.46 768.44 417.34 776.17 415.25 783.89 413.16 791.61 411.11 799.33 409.05 807.06 407.05 814.78 405.05" stroke="#0080ff" stroke-width="4"></path><path d="M836.24 399.68Q844.43 397.72 852.62 395.77 860.81 393.9 869 392.03 877.2 390.26 885.39 388.49 893.58 386.83 901.77 385.17 909.96 383.62 918.15 382.08" stroke="#8000ff" stroke-width="4"></path><path d="M958.08 375.61Q966.01 374.56 973.94 373.5 981.87 372.58 989.8 371.66 997.73 370.88 1005.66 370.11" stroke="#8000ff" stroke-width="4"></path><path d="M1020.06 368.95Q1026.23 368.55 1032.4 368.14 1038.58 367.83 1044.75 367.52 1050.92 367.31 1057.09 367.09" stroke="#ff00ff" stroke-width="4"></path><path d="M1073.78 366.79Q1082.86 366.82 1091.95 366.86 1101.03 367.09 1110.11 367.32 1119.2 367.75 1128.28 368.18" stroke="#ff00ff" stroke-width="4"></path><path d="M1146.17 369.42Q1153.94 370.11 1161.7 370.79 1169.47 371.62 1177.23 372.44 1185 373.4 1192.77 374.36 1200.53 375.45 1208.3 376.54 1216.06 377.75 1223.83 378.96" stroke="#0080ff" stroke-width="4"></path><path d="M1237.25 381.25Q1244.98 382.68 1252.71 384.1 1260.44 385.63 1268.17 387.16 1275.9 388.79 1283.64 390.41 1291.37 392.13 1299.1 393.85 1306.83 395.66 1314.56 397.46 1322.29 399.34 1330.02 401.22 1337.75 403.17 1345.48 405.12 1353.21 407.12 1360.94 409.13 1368.67 411.18 1376.41 413.24 1384.14 415.33 1391.87 417.43 1399.6 419.55 1407.33 421.68 1415.06 423.82 1422.79 425.97" stroke="#0080ff" stroke-width="4"></path><path d="M29.59 482.09Q38.26 484.47 46.93 486.86 55.61 489.21 64.28 491.56 72.95 493.86 81.62 496.16 90.29 498.4 98.96 500.63 107.64 502.79 116.31 504.95 124.98 507.02 133.65 509.09" stroke="#0080ff" stroke-width="4"></path><path d="M162.58 515.53Q170.98 517.26 179.38 518.98 187.77 520.58 196.17 522.18 204.57 523.65 212.97 525.12 221.36 526.45 229.76 527.79 238.16 528.98 246.56 530.16 254.95 531.2 263.35 532.24" stroke="#4000ff" stroke-width="4"></path><path d="M292 535.05Q299.61 535.6 307.23 536.16 314.84 536.57 322.46 536.99 330.07 537.27 337.69 537.54 345.3 537.68 352.92 537.82 360.53 537.81 368.14 537.81 375.76 537.66 383.37 537.51 390.99 537.23 398.6 536.94 406.22 536.51 413.83 536.09 421.45 535.53 429.06 534.96 436.68 534.26 444.29 533.57" stroke="#ff00ff" stroke-width="4"></path><path d="M465.65 531.17Q468.36 530.82 471.07 530.48 473.77 530.12 476.48 529.76 479.19 529.38 481.9 529" stroke="#8000ff" stroke-width="4"></path><path d="M514.92 523.77Q522.64 522.37 530.36 520.96 538.09 519.45 545.81 517.94 553.53 516.33 561.25 514.72" stroke="#00ffff" stroke-width="4"></path><path d="M572.5 512.25Q581.05 510.29 589.6 508.33 598.15 506.27 606.71 504.21 615.26 502.07 623.81 499.93 632.36 497.71 640.91 495.5 649.46 493.22 658.01 490.95 666.57 488.62 675.12 486.3 683.67 483.94 692.22 481.58" stroke="#0080ff" stroke-width="4"></path><path d="M729.79 471.11Q734.3 469.86 738.82 468.6 743.33 467.34 747.84 466.09 752.36 464.84 756.87 463.59" stroke="#00ffff" stroke-width="4"></path><path d="M787.43 455.29Q796.32 452.94 805.22 450.59 814.11 448.32 823.01 446.04 831.9 443.85 840.79 441.65 849.69 439.56 858.58 437.46" stroke="#8000ff" stroke-width="4"></path><path d="M880.74 432.55Q889.81 430.68 898.87 428.81 907.94 427.09 917.01 425.36 926.07 423.79 935.14 422.21" stroke="#00ffff" stroke-width="4"></path><path d="M967.32 417.43Q975.32 416.44 983.32 415.46 991.32 414.61 999.32 413.77 1007.32 413.07 1015.32 412.38 1023.32 411.83 1031.32 411.28 1039.32 410.89 1047.32 410.5 1055.32 410.26 1063.32 410.02 1071.32 409.93 1079.32 409.85 1087.32 409.92 1095.32 409.99 1103.32 410.22 1111.32 410.44 1119.32 410.82 1127.32 411.21" stroke="#00ffff" stroke-width="4"></path><path d="M1137.8 411.87Q1145.31 412.46 1152.83 413.05 1160.34 413.77 1167.86 414.49 1175.37 415.34 1182.88 416.19 1190.4 417.16 1197.91 418.13 1205.42 419.22 1212.94 420.31 1220.45 421.52 1227.96 422.73 1235.48 424.04 1242.99 425.36 1250.51 426.78 1258.02 428.2 1265.53 429.72 1273.05 431.24 1280.56 432.85 1288.07 434.46 1295.59 436.16 1303.1 437.85 1310.62 439.62 1318.13 441.39" stroke="#00ffff" stroke-width="4"></path><path d="M1357.54 451.31Q1362.12 452.52 1366.7 453.72 1371.28 454.95 1375.86 456.17 1380.45 457.41 1385.03 458.64 1389.61 459.89 1394.19 461.14 1398.77 462.4 1403.35 463.66 1407.93 464.92 1412.51 466.19 1417.09 467.46 1421.68 468.73 1426.26 470.01 1430.84 471.29 1435.42 472.57 1440 473.85" stroke="#0080ff" stroke-width="4"></path><path d="M1.48 517.34Q9.13 519.47 16.77 521.6 24.42 523.73 32.07 525.85 39.71 527.95 47.36 530.05 55.01 532.13 62.66 534.2 70.3 536.24 77.95 538.27 85.6 540.26 93.24 542.25 100.89 544.18 108.54 546.11 116.18 547.98 123.83 549.84 131.48 551.64 139.12 553.43 146.77 555.14 154.42 556.86 162.07 558.48 169.71 560.1 177.36 561.63 185.01 563.16 192.65 564.58 200.3 566" stroke="#4000ff" stroke-width="4"></path><path d="M210.75 567.82Q218.29 569.05 225.83 570.27 233.37 571.37 240.91 572.48 248.46 573.46 256 574.45 263.54 575.31 271.08 576.17 278.62 576.9 286.16 577.63 293.7 578.23 301.24 578.83 308.78 579.3 316.33 579.76 323.87 580.1 331.41 580.43 338.95 580.62 346.49 580.81" stroke="#8000ff" stroke-width="4"></path><path d="M381.22 580.65Q390.16 580.32 399.1 579.99 408.04 579.47 416.98 578.96 425.92 578.25 434.86 577.54 443.8 576.65 452.74 575.75 461.68 574.68 470.62 573.61" stroke="#8000ff" stroke-width="4"></path><path d="M500.82 569.22Q505.09 568.51 509.37 567.81 513.64 567.06 517.91 566.32 522.19 565.55 526.46 564.77" stroke="#0080ff" stroke-width="4"></path><path d="M560.07 558.05Q566.3 556.68 572.53 555.32 578.76 553.9 584.98 552.48 591.21 551.01 597.44 549.54" stroke="#8000ff" stroke-width="4"></path><path d="M622.95 543.22Q630.52 541.27 638.09 539.31 645.66 537.31 653.24 535.3 660.81 533.26 668.38 531.22" stroke="#8000ff" stroke-width="4"></path><path d="M698.51 522.92Q706.51 520.69 714.51 518.46 722.51 516.22 730.51 513.99 738.51 511.76 746.51 509.54 754.51 507.33 762.51 505.12 770.51 502.94 778.51 500.76 786.52 498.62 794.52 496.48 802.52 494.39 810.52 492.3 818.52 490.27 826.52 488.24 834.52 486.28 842.52 484.32 850.52 482.43 858.52 480.55" stroke="#ff00ff" stroke-width="4"></path><path d="M880.43 475.69Q888.17 474.09 895.92 472.48 903.66 470.98 911.41 469.47 919.15 468.08 926.9 466.68 934.64 465.4 942.39 464.12 950.13 462.96 957.88 461.8 965.62 460.76 973.36 459.73 981.11 458.82 988.85 457.92 996.6 457.15 1004.34 456.38 1012.09 455.75 1019.83 455.12 1027.58 454.63 1035.32 454.14" stroke="#0080ff" stroke-width="4"></path><path d="M1059.19 453.19Q1068.7 453.06 1078.22 452.93 1087.73 453.01 1097.24 453.1 1106.76 453.41 1116.27 453.72" stroke="#8000ff" stroke-width="4"></path><path d="M1152.59 456.11Q1153.63 456.2 1154.67 456.29 1155.71 456.38 1156.76 456.48 1157.8 456.58 1158.84 456.67" stroke="#00ffff" stroke-width="4"></path><path d="M1177.25 458.6Q1186.45 459.75 1195.65 460.9 1204.85 462.23 1214.05 463.56 1223.25 465.06 1232.45 466.57" stroke="#4000ff" stroke-width="4"></path><path d="M1254.73 470.64Q1262.38 472.17 1270.04 473.69 1277.69 475.32 1285.34 476.94 1293 478.65 1300.65 480.36 1308.3 482.16 1315.96 483.95 1323.61 485.82 1331.26 487.68 1338.92 489.62 1346.57 491.55 1354.22 493.54 1361.88 495.53 1369.53 497.56 1377.18 499.6 1384.84 501.68 1392.49 503.75" stroke="#0080ff" stroke-width="4"></path></g><defs><clipPath id="SvgjsClipPath1006"><rect width="1440" height="560" x="0" y="0"></rect></clipPath></defs></svg>